<svg width="554" height="452" viewBox="0 0 554 452" fill="none" xmlns="http://www.w3.org/2000/svg">
<path d="M460.353 353.998L434.968 329.457L422.93 317.959C421.795 316.875 420.925 315.529 420.39 314.03C419.855 312.531 419.671 310.922 419.853 309.335C420.034 307.748 420.576 306.228 421.435 304.9C422.293 303.571 423.443 302.473 424.791 301.694C425.981 301.006 427.297 300.583 428.655 300.454C430.012 300.324 431.381 300.49 432.673 300.942C433.965 301.393 435.151 302.119 436.155 303.074C437.159 304.028 437.96 305.19 438.504 306.484L442.464 315.892L467.053 342.304L460.353 353.998Z" fill="#FFB9B9"/>
<path d="M463.671 338.08L454.756 353.456L490.945 376.444C522.85 352.696 529.165 344.968 521.348 307.14L515.131 300.702L485.069 351.192L463.671 338.08Z" fill="#EC8C38"/>
<path d="M411.117 295.329C410.759 294.964 410.292 294.737 409.793 294.686C409.293 294.635 408.792 294.763 408.373 295.049L391.615 306.352C391.339 306.538 391.108 306.785 390.936 307.075C390.765 307.366 390.659 307.692 390.625 308.03C390.591 308.369 390.631 308.711 390.741 309.031C390.852 309.352 391.03 309.643 391.262 309.883L433.881 353.825C434.088 354.039 434.334 354.207 434.605 354.321C434.875 354.436 435.165 354.493 435.458 354.49C435.75 354.487 436.039 354.424 436.307 354.304C436.576 354.185 436.819 354.011 437.022 353.794L450.988 338.824C451.392 338.39 451.614 337.808 451.605 337.205C451.597 336.602 451.359 336.027 450.943 335.605L411.117 295.329Z" fill="#3F3D56"/>
<path d="M394.916 307.561L396.65 306.416C396.468 306.753 396.401 307.145 396.46 307.526C396.519 307.908 396.702 308.257 396.978 308.518C397.253 308.778 397.606 308.935 397.979 308.961C398.351 308.987 398.721 308.882 399.029 308.663L410.252 300.673C410.507 300.492 410.708 300.24 410.831 299.946C410.955 299.652 410.996 299.328 410.951 299.011C410.905 298.694 410.775 298.397 410.574 298.153C410.373 297.91 410.11 297.729 409.815 297.632L410.709 297.042C410.825 296.966 410.962 296.933 411.099 296.949C411.236 296.965 411.363 297.029 411.46 297.13L449.215 335.552C449.271 335.611 449.315 335.681 449.345 335.758C449.375 335.835 449.39 335.917 449.388 336C449.387 336.083 449.369 336.165 449.337 336.241C449.304 336.317 449.258 336.385 449.199 336.442L435.488 350.277C435.374 350.388 435.223 350.449 435.067 350.447C434.911 350.445 434.761 350.38 434.651 350.265L394.815 308.527C394.751 308.461 394.702 308.382 394.672 308.294C394.642 308.206 394.632 308.112 394.642 308.019C394.651 307.926 394.681 307.837 394.729 307.758C394.776 307.679 394.84 307.611 394.916 307.561Z" fill="white"/>
<path d="M438.491 327.068L426.909 338.376L399.36 310.191L413.342 300.767L438.491 327.068Z" fill="#EC8C38"/>
<path d="M400.431 317.147C400.506 317.069 400.548 316.963 400.548 316.853C400.548 316.743 400.506 316.638 400.431 316.56L398.022 314.065C397.946 313.989 397.844 313.947 397.739 313.947C397.633 313.947 397.532 313.989 397.455 314.065C397.38 314.143 397.338 314.248 397.338 314.358C397.338 314.468 397.38 314.574 397.455 314.652L399.864 317.147C399.941 317.222 400.042 317.264 400.148 317.264C400.253 317.264 400.355 317.222 400.431 317.147Z" fill="#E6E6E6"/>
<path d="M404.49 320.762L402.08 318.267C402.043 318.229 401.999 318.198 401.95 318.177C401.902 318.157 401.85 318.146 401.797 318.146C401.744 318.146 401.692 318.157 401.644 318.177C401.595 318.198 401.551 318.229 401.514 318.267C401.476 318.306 401.447 318.352 401.427 318.402C401.406 318.452 401.396 318.506 401.396 318.561C401.396 318.615 401.406 318.669 401.427 318.72C401.447 318.77 401.476 318.816 401.514 318.854L403.923 321.349C403.998 321.427 404.1 321.471 404.206 321.471C404.312 321.471 404.414 321.427 404.49 321.349C404.565 321.271 404.607 321.166 404.607 321.056C404.607 320.946 404.565 320.84 404.49 320.762Z" fill="#E6E6E6"/>
<path d="M438.224 339.576C439.718 339.576 440.929 338.322 440.929 336.774C440.929 335.227 439.718 333.973 438.224 333.973C436.73 333.973 435.518 335.227 435.518 336.774C435.518 338.322 436.73 339.576 438.224 339.576Z" fill="#EC8C38"/>
<path d="M552.737 435.825H342.913V434.318H553.001L552.737 435.825Z" fill="#3F3D56"/>
<path d="M528.745 434.841V217.559H530.2V435.113L528.745 434.841Z" fill="#3F3D56"/>
<path d="M264.362 428.394L250.618 432.152C248.665 436.144 245.329 439.225 241.277 440.78C237.225 442.334 232.755 442.248 228.762 440.537L228.462 440.408C226.641 439.603 224.942 438.528 223.418 437.219C217.645 432.373 208.027 429.872 195.273 429.283C194.491 429.029 193.813 428.512 193.345 427.815C192.878 427.118 192.647 426.279 192.691 425.432C192.736 424.538 193.082 423.69 193.669 423.033C194.256 422.377 195.046 421.954 195.903 421.838L264.675 412.549L264.362 428.394Z" fill="#E6E6E6"/>
<path d="M442.669 441.005C406.712 435.034 373.955 425.369 346.489 409.594L261.24 431.26L261.552 411.902L328.188 387.699C339.43 383.616 351.377 382.035 363.249 383.06L442.669 398.321L442.669 441.005Z" fill="#2F2E41"/>
<path d="M305.584 448.774C305.313 447.838 305.342 446.836 305.665 445.919C305.989 445.001 306.591 444.217 307.381 443.682L339.62 426.13L347.426 405.111L360.854 413.842L357.107 429.364L357.993 435.787C358.271 437.802 358.127 439.855 357.572 441.807C357.017 443.759 356.064 445.565 354.776 447.102C353.489 448.64 351.897 449.873 350.109 450.718C348.322 451.563 346.379 452 344.414 452H309.772C308.831 452 307.916 451.686 307.162 451.105C306.408 450.524 305.854 449.706 305.584 448.774Z" fill="#E6E6E6"/>
<path d="M486.075 429.041C447.142 479.165 420.354 424.57 393.955 366.631L362.103 420.31L342.742 406.082L376.127 330.025C376.951 328.148 378.194 326.5 379.753 325.218C381.312 323.935 383.143 323.055 385.095 322.648C387.047 322.242 389.064 322.321 390.981 322.88C392.897 323.439 394.658 324.461 396.119 325.862L442.669 379.565L451.412 378.919L486.075 429.041Z" fill="#2F2E41"/>
<path d="M488.26 285.788C501.023 285.788 511.368 275.075 511.368 261.859C511.368 248.643 501.023 237.929 488.26 237.929C475.498 237.929 465.152 248.643 465.152 261.859C465.152 275.075 475.498 285.788 488.26 285.788Z" fill="#FFB9B9"/>
<path d="M517.614 304.544L492.008 310.364C489.549 299.445 485.991 288.823 481.39 278.674L505.123 269.62C508.039 281.699 512.228 293.411 517.614 304.544Z" fill="#FFB9B9"/>
<path d="M488.26 435.185L442.669 379.565L461.234 347.61C463.188 333.235 470.358 321.937 481.39 312.916L488.885 300.016L511.368 290.315C519.263 296.818 524.875 305.827 527.341 315.956C529.807 326.084 528.99 336.771 525.016 346.373L488.26 435.185Z" fill="#EC8C38"/>
<path d="M448.914 373.745L421.434 351.755L408.416 341.467C407.189 340.498 406.202 339.241 405.534 337.8C404.867 336.359 404.539 334.774 404.578 333.177C404.616 331.579 405.019 330.013 405.754 328.608C406.49 327.203 407.536 325.999 408.808 325.093C409.931 324.293 411.204 323.746 412.544 323.486C413.884 323.227 415.262 323.26 416.588 323.585C417.915 323.91 419.161 324.519 420.247 325.372C421.333 326.226 422.234 327.306 422.892 328.542L427.68 337.527L454.535 361.457L448.914 373.745Z" fill="#FFB9B9"/>
<path d="M450.788 357.576L443.293 373.745L481.391 393.147C511.023 366.429 527.546 340.808 516.365 303.897L502 307.777L473.271 368.571L450.788 357.576Z" fill="#EC8C38"/>
<path d="M518.26 234.281C523.341 234.281 527.46 230.015 527.46 224.753C527.46 219.491 523.341 215.226 518.26 215.226C513.179 215.226 509.059 219.491 509.059 224.753C509.059 230.015 513.179 234.281 518.26 234.281Z" fill="#2F2E41"/>
<path d="M508.779 222.421C508.931 220.004 509.966 217.737 511.674 216.082C513.383 214.428 515.636 213.51 517.976 213.516C517.786 213.491 517.597 213.461 517.404 213.448C514.968 213.286 512.571 214.132 510.738 215.8C508.906 217.469 507.788 219.823 507.632 222.344C507.475 224.866 508.292 227.349 509.904 229.246C511.515 231.144 513.788 232.301 516.223 232.463C516.417 232.476 516.607 232.471 516.799 232.472C514.478 232.167 512.357 230.958 510.867 229.091C509.377 227.223 508.63 224.838 508.779 222.421Z" fill="#2F2E41"/>
<path d="M508.728 226.489C500.522 219.44 476.987 228.399 475.468 233.138C464.373 234.704 455.972 241.408 455.972 253.328V253.328C462.568 256.127 470.071 255.782 478.181 253.328C491.11 264.238 491.996 277.954 484.134 293.708L493.807 293.908L505.797 275.761L506.37 294.168L528.543 293.708V267.329C528.615 258.559 526.666 249.897 522.857 242.063C519.402 235.111 514.039 231.052 508.728 226.489Z" fill="#2F2E41"/>
<path d="M488.08 273.094C490.51 273.094 492.48 270.238 492.48 266.716C492.48 263.193 490.51 260.337 488.08 260.337C485.65 260.337 483.68 263.193 483.68 266.716C483.68 270.238 485.65 273.094 488.08 273.094Z" fill="#FFB8B8"/>
<path d="M4.83662 0C3.55457 0.00149011 2.32545 0.529543 1.4189 1.46831C0.512355 2.40708 0.00241553 3.67989 0.000976562 5.00751V216.754C0.00248503 218.081 0.512455 219.354 1.419 220.293C2.32554 221.231 3.55462 221.759 4.83662 221.761H304.647C305.929 221.759 307.158 221.231 308.064 220.293C308.971 219.354 309.481 218.081 309.482 216.754V5.00751C309.481 3.67991 308.971 2.40713 308.064 1.46838C307.158 0.529621 305.929 0.00154868 304.647 0H4.83662Z" fill="#E6E6E6"/>
<path d="M11.7447 7.15359C10.4627 7.15509 9.23353 7.68314 8.32698 8.62191C7.42044 9.56067 6.9105 10.8335 6.90906 12.1611V209.6C6.91049 210.927 7.42043 212.2 8.32697 213.139C9.23352 214.078 10.4627 214.606 11.7447 214.607H297.739C299.021 214.606 300.25 214.078 301.156 213.139C302.063 212.2 302.573 210.927 302.574 209.6V12.1611C302.573 10.8335 302.063 9.56073 301.156 8.62197C300.25 7.68322 299.021 7.15514 297.739 7.15359H11.7447Z" fill="white"/>
<path d="M67.4491 138.822H66.0674V143.114H67.4491V138.822Z" fill="#E6E6E6"/>
<path d="M67.4491 150.936H66.0674V158.759H67.4491V150.936Z" fill="#E6E6E6"/>
<path d="M67.4491 166.581H66.0674V170.873H67.4491V166.581Z" fill="#E6E6E6"/>
<path d="M202.156 78.6894H200.775V82.9815H202.156V78.6894Z" fill="#E6E6E6"/>
<path d="M202.156 155.385H200.775V146.334H202.156V155.385ZM202.156 137.284H200.775V128.234H202.156V137.284ZM202.156 119.183H200.775V110.133H202.156V119.183ZM202.156 101.082H200.775V92.0318H202.156V101.082Z" fill="#E6E6E6"/>
<path d="M202.156 164.435H200.775V168.727H202.156V164.435Z" fill="#E6E6E6"/>
<path d="M280.217 38.6293H278.836V42.9214H280.217V38.6293Z" fill="#E6E6E6"/>
<path d="M280.217 156.334H278.836V148.233H280.217V156.334ZM280.217 140.132H278.836V132.031H280.217V140.132ZM280.217 123.931H278.836V115.83H280.217V123.931ZM280.217 107.729H278.836V99.628H280.217V107.729ZM280.217 91.5267H278.836V83.4258H280.217V91.5267ZM280.217 75.325H278.836V67.2241H280.217V75.325ZM280.217 59.1232H278.836V51.0223H280.217V59.1232Z" fill="#E6E6E6"/>
<path d="M280.217 164.435H278.836V168.727H280.217V164.435Z" fill="#E6E6E6"/>
<path d="M43.514 170.576C40.1891 160.258 46.4305 149.612 54.7731 144.158C65.39 137.217 78.8727 139.282 90.0413 143.585C112.031 152.057 131.729 171.862 156.847 167.194C161.832 166.334 166.549 164.261 170.609 161.144C174.82 157.722 178.027 153.154 179.871 147.951C183.86 137.189 182.909 125.449 183.529 114.172C184.103 103.725 186.108 91.8445 194.397 84.848C203.477 77.1828 216.346 78.6702 227.269 77.9285C237.778 77.2622 247.941 73.7834 256.763 67.8323C265.554 61.9185 272.746 53.7843 277.662 44.1963C278.821 41.8919 279.836 39.513 280.702 37.0744C281.165 35.777 279.163 35.2173 278.704 36.5038C271.37 57.0547 252.402 72.7345 231.366 75.3972C220.271 76.8015 208.261 74.8552 197.879 80.0477C188.103 84.9369 183.765 95.5311 182.24 106.097C180.603 117.444 181.964 129.047 179.798 140.329C178.718 145.954 176.712 151.487 173.039 155.864C169.547 159.905 165.003 162.814 159.952 164.244C135.318 171.618 114.28 151.451 92.9878 142.482C81.9063 137.814 68.6429 135.057 57.2773 140.33C48.4249 144.436 40.901 153.651 40.5123 163.978C40.4269 166.411 40.7668 168.839 41.5156 171.146C41.9357 172.45 43.9378 171.891 43.514 170.576H43.514Z" fill="#EC8C38"/>
<path d="M292.212 171.589H28.324V36.5806H29.7056V170.158H292.212V171.589Z" fill="#3F3D56"/>
</svg>
